<svg width="28" height="24" viewBox="0 0 28 24" fill="none" xmlns="http://www.w3.org/2000/svg">
<path fill-rule="evenodd" clip-rule="evenodd" d="M19.5164 3C20.9971 3 22.4215 3.53 23.4693 4.481C24.5183 5.43 25.1046 6.71 25.1046 8.05V15.95C25.1046 18.74 22.5981 21 19.5164 21H8.60835C5.52663 21 3.02127 18.74 3.02127 15.95V8.05C3.02127 5.26 5.51558 3 8.60835 3H19.5164ZM21.2731 9.54L21.3615 9.46C21.6254 9.17 21.6254 8.75 21.3493 8.46C21.1959 8.311 20.985 8.22 20.7652 8.2C20.5334 8.189 20.3125 8.26 20.1458 8.4L15.1671 12C14.5267 12.481 13.6091 12.481 12.9588 12L7.99002 8.4C7.64663 8.17 7.17183 8.2 6.88585 8.47C6.58773 8.74 6.5546 9.17 6.80746 9.47L6.9521 9.6L11.9761 13.15C12.5944 13.59 13.3441 13.83 14.1292 13.83C14.912 13.83 15.675 13.59 16.2922 13.15L21.2731 9.54Z" fill="#11BCC9"/>
</svg>
