<svg width="28" height="24" viewBox="0 0 28 24" fill="none" xmlns="http://www.w3.org/2000/svg">
<path fill-rule="evenodd" clip-rule="evenodd" d="M14.0956 2.00002C16.5911 2.01002 18.9761 2.91002 20.7206 4.49002C22.4763 6.08002 23.459 8.23002 23.4479 10.46V10.51C23.3817 13.54 21.5046 16.33 19.1638 18.51C17.8388 19.74 16.3702 20.83 14.7692 21.75C14.3386 22.08 13.7092 22.08 13.2786 21.75C10.9046 20.35 8.80668 18.59 7.10626 16.54C5.61564 14.76 4.76543 12.62 4.67709 10.39C4.69918 5.74002 8.91709 1.99002 14.0956 2.00002ZM14.0956 13.26C14.8796 13.26 15.6304 12.99 16.1825 12.5C16.7567 11.99 17.078 11.311 17.078 10.6C17.078 9.12002 15.7408 7.93002 14.0956 7.93002C12.4504 7.93002 11.1254 9.12002 11.1254 10.6C11.1254 12.061 12.4283 13.24 14.0625 13.26H14.0956Z" fill="#11BCC9"/>
</svg>
