<svg width="28" height="24" viewBox="0 0 28 24" fill="none" xmlns="http://www.w3.org/2000/svg">
<path fill-rule="evenodd" clip-rule="evenodd" d="M6.34268 10.6946C6.34268 10.0759 6.35091 9.4573 6.35917 8.83578L6.35917 8.83577C6.36336 8.52068 6.36756 8.20485 6.3707 7.88791C6.3707 4.48261 8.72448 1.99979 11.9749 1.99979H16.1501C19.4005 1.99979 21.7543 4.48261 21.7543 7.88791C21.7823 9.25199 21.7917 10.6161 21.7917 11.99C21.7917 13.3639 21.7823 14.7476 21.7543 16.1117C21.7543 19.517 19.4005 21.9998 16.1501 21.9998H11.9749C8.72448 21.9998 6.3707 19.517 6.3707 16.1018C6.35202 14.8163 6.33334 13.5013 6.33334 12.1666L6.34268 10.6946ZM15.4758 19.6398V19.7998C15.4758 20.4734 14.8539 20.9998 14.0625 20.9998C13.2899 20.9998 12.6491 20.4734 12.6491 19.7998V19.6398C12.6491 18.9838 13.2899 18.4398 14.0625 18.4398C14.8539 18.4398 15.4758 18.9838 15.4758 19.6398ZM8.56013 8.44319C8.55422 8.84717 8.54835 9.24929 8.54835 9.65141L8.54168 10.6082C8.54168 11.4757 8.55502 12.3305 8.56836 13.1661C8.56836 15.3859 10.2496 16.9998 12.5714 16.9998H15.5536C17.8754 16.9998 19.5567 15.3859 19.5567 13.1725C19.5767 12.2859 19.5833 11.3864 19.5833 10.4934C19.5833 9.60038 19.5767 8.71372 19.5567 7.82707C19.5567 5.61362 17.8754 3.99979 15.5536 3.99979H12.5714C10.2496 3.99979 8.56836 5.61362 8.56836 7.82707C8.56612 8.03308 8.56312 8.23837 8.56013 8.44319Z" fill="#11BCC9"/>
</svg>
