<svg width="160" height="24" viewBox="0 0 160 24" fill="none" xmlns="http://www.w3.org/2000/svg">
<g clip-path="url(#clip0_1_20)">
<path opacity="0.1" fill-rule="evenodd" clip-rule="evenodd" d="M0.1875 12C0.1875 5.37258 5.56008 0 12.1875 0C18.8149 0 24.1875 5.37258 24.1875 12C24.1875 18.6274 18.8149 24 12.1875 24C5.56008 24 0.1875 18.6274 0.1875 12Z" fill="white"/>
<path fill-rule="evenodd" clip-rule="evenodd" d="M12.1881 5.59998C10.4499 5.59998 10.2318 5.60758 9.54911 5.63864C8.86777 5.66984 8.4027 5.77771 7.99577 5.93598C7.57483 6.09945 7.21776 6.31812 6.86202 6.67399C6.50602 7.02972 6.28735 7.38679 6.12335 7.8076C5.96468 8.21467 5.85668 8.67987 5.82601 9.36095C5.79548 10.0436 5.78748 10.2619 5.78748 12C5.78748 13.7382 5.79521 13.9557 5.82614 14.6383C5.85748 15.3197 5.96534 15.7847 6.12348 16.1917C6.28708 16.6126 6.50575 16.9697 6.86162 17.3254C7.21722 17.6814 7.57429 17.9006 7.99497 18.0641C8.40217 18.2224 8.86737 18.3302 9.54858 18.3614C10.2313 18.3925 10.4493 18.4001 12.1873 18.4001C13.9256 18.4001 14.143 18.3925 14.8257 18.3614C15.507 18.3302 15.9726 18.2224 16.3799 18.0641C16.8007 17.9006 17.1572 17.6814 17.5128 17.3254C17.8688 16.9697 18.0875 16.6126 18.2515 16.1918C18.4088 15.7847 18.5168 15.3195 18.5488 14.6385C18.5795 13.9558 18.5875 13.7382 18.5875 12C18.5875 10.2619 18.5795 10.0438 18.5488 9.36108C18.5168 8.67974 18.4088 8.21467 18.2515 7.80773C18.0875 7.38679 17.8688 7.02972 17.5128 6.67399C17.1568 6.31798 16.8008 6.09931 16.3795 5.93598C15.9714 5.77771 15.5061 5.66984 14.8248 5.63864C14.1421 5.60758 13.9248 5.59998 12.1861 5.59998H12.1881ZM11.6139 6.7533C11.7843 6.75304 11.9744 6.7533 12.188 6.7533C13.8969 6.7533 14.0994 6.75944 14.7742 6.7901C15.3982 6.81864 15.7369 6.9229 15.9625 7.01051C16.2612 7.12651 16.4741 7.26518 16.698 7.48918C16.922 7.71318 17.0606 7.92652 17.1769 8.22518C17.2645 8.45052 17.3689 8.78919 17.3973 9.4132C17.428 10.0879 17.4346 10.2905 17.4346 11.9986C17.4346 13.7066 17.428 13.9092 17.3973 14.5839C17.3688 15.2079 17.2645 15.5466 17.1769 15.7719C17.0609 16.0706 16.922 16.2833 16.698 16.5071C16.474 16.7311 16.2613 16.8698 15.9625 16.9858C15.7372 17.0738 15.3982 17.1778 14.7742 17.2063C14.0995 17.237 13.8969 17.2437 12.188 17.2437C10.4791 17.2437 10.2766 17.237 9.60189 17.2063C8.97788 17.1775 8.63921 17.0733 8.41348 16.9857C8.11481 16.8697 7.90147 16.731 7.67747 16.507C7.45347 16.283 7.3148 16.0702 7.19853 15.7714C7.11093 15.5461 7.00653 15.2074 6.97813 14.5834C6.94746 13.9087 6.94133 13.706 6.94133 11.997C6.94133 10.2879 6.94746 10.0863 6.97813 9.4116C7.00666 8.78759 7.11093 8.44892 7.19853 8.22332C7.31453 7.92465 7.45347 7.71131 7.67747 7.48731C7.90147 7.26331 8.11481 7.12464 8.41348 7.00837C8.63908 6.92037 8.97788 6.81637 9.60189 6.7877C10.1923 6.76104 10.4211 6.75304 11.6139 6.7517V6.7533ZM15.6044 7.81598C15.1803 7.81598 14.8363 8.15959 14.8363 8.58372C14.8363 9.00773 15.1803 9.35173 15.6044 9.35173C16.0284 9.35173 16.3724 9.00773 16.3724 8.58372C16.3724 8.15972 16.0284 7.81598 15.6044 7.81598ZM12.1881 8.71332C10.373 8.71332 8.90139 10.1849 8.90139 12C8.90139 13.8151 10.373 15.2861 12.1881 15.2861C14.0032 15.2861 15.4743 13.8151 15.4743 12C15.4743 10.1849 14.0032 8.71332 12.1881 8.71332ZM12.1881 9.86667C13.3662 9.86667 14.3214 10.8217 14.3214 12C14.3214 13.1782 13.3662 14.1334 12.1881 14.1334C11.0098 14.1334 10.0547 13.1782 10.0547 12C10.0547 10.8217 11.0098 9.86667 12.1881 9.86667Z" fill="white"/>
<path opacity="0.1" fill-rule="evenodd" clip-rule="evenodd" d="M40.1875 12C40.1875 5.37258 45.5601 0 52.1875 0C58.8149 0 64.1875 5.37258 64.1875 12C64.1875 18.6274 58.8149 24 52.1875 24C45.5601 24 40.1875 18.6274 40.1875 12Z" fill="white"/>
<path fill-rule="evenodd" clip-rule="evenodd" d="M58.5875 11.9911C58.5875 12.4239 58.5434 12.8561 58.4569 13.2775C58.3725 13.6888 58.2475 14.0926 58.0837 14.4786C57.9237 14.8578 57.7253 15.2232 57.4934 15.5639C57.2649 15.9026 57.0018 16.2202 56.7127 16.5098C56.423 16.7982 56.1042 17.0606 55.7658 17.29C55.4239 17.5203 55.058 17.7184 54.6786 17.8792C54.292 18.0421 53.8872 18.1669 53.4763 18.2511C53.0544 18.3379 52.6206 18.3822 52.1872 18.3822C51.7534 18.3822 51.3196 18.3379 50.8984 18.2511C50.4868 18.1669 50.0821 18.0421 49.6958 17.8792C49.3164 17.7184 48.9501 17.5203 48.6083 17.29C48.2698 17.0606 47.951 16.7982 47.662 16.5098C47.3726 16.2202 47.1094 15.9026 46.8807 15.5639C46.65 15.2232 46.4513 14.8577 46.2906 14.4786C46.1269 14.0926 46.0016 13.6887 45.9169 13.2775C45.8312 12.8561 45.7875 12.4239 45.7875 11.9911C45.7875 11.558 45.8312 11.1248 45.9169 10.7044C46.0016 10.2931 46.1269 9.88869 46.2907 9.5033C46.4513 9.12384 46.6501 8.75811 46.8807 8.41731C47.1095 8.07842 47.3726 7.76134 47.662 7.47143C47.9511 7.18307 48.2698 6.92127 48.6083 6.69222C48.9502 6.46096 49.3165 6.26282 49.6958 6.10178C50.0821 5.93854 50.4868 5.81342 50.8984 5.7298C51.3197 5.64368 51.7534 5.59998 52.1872 5.59998C52.6207 5.59998 53.0544 5.64368 53.4763 5.7298C53.8873 5.81345 54.292 5.93857 54.6786 6.10178C55.058 6.2628 55.4239 6.46096 55.7658 6.69222C56.1043 6.92127 56.4231 7.18307 56.7127 7.47143C57.0018 7.76134 57.265 8.07842 57.4934 8.41731C57.7253 8.75811 57.9237 9.12386 58.0837 9.5033C58.2475 9.88869 58.3725 10.2931 58.4569 10.7044C58.5434 11.1248 58.5875 11.558 58.5875 11.9911ZM49.8552 7.05451C48.331 7.77322 47.1935 9.17563 46.8387 10.8658C46.9828 10.867 49.2604 10.8958 51.8846 10.1995C50.9387 8.52121 49.928 7.15159 49.8552 7.05451ZM52.3375 11.0399C49.5233 11.8812 46.8228 11.8207 46.7259 11.817C46.7244 11.8756 46.7216 11.9324 46.7216 11.9911C46.7216 13.3932 47.2513 14.6714 48.1219 15.6379C48.1201 15.6351 49.6158 12.9853 52.5653 12.0329C52.6365 12.0092 52.7091 11.988 52.7809 11.9674C52.6438 11.6572 52.494 11.3464 52.3375 11.0399ZM55.7967 7.89492C54.8345 7.04764 53.571 6.5337 52.1872 6.5337C51.7431 6.5337 51.3121 6.58738 50.8993 6.68661C50.9812 6.79647 52.0078 8.15644 52.9425 9.87028C55.0048 9.09824 55.7833 7.91488 55.7967 7.89492ZM53.1535 12.8717C53.1413 12.8758 53.1291 12.8793 53.1172 12.8836C49.8924 14.0062 48.8393 16.2685 48.8279 16.2932C49.7558 17.0138 50.9196 17.4485 52.1872 17.4485C52.9441 17.4485 53.6651 17.2946 54.321 17.016C54.2401 16.5391 53.9226 14.8677 53.1535 12.8717ZM55.2414 16.5173C56.4686 15.6903 57.3402 14.3772 57.5834 12.8561C57.4709 12.8199 55.9417 12.3365 54.1776 12.619C54.8945 14.5862 55.1858 16.1884 55.2414 16.5173ZM53.3632 10.6835C53.4901 10.9438 53.6129 11.2087 53.7263 11.4749C53.7667 11.5704 53.806 11.6641 53.8445 11.7577C55.7221 11.5217 57.5718 11.9187 57.6509 11.9349C57.6384 10.6411 57.1749 9.45367 56.4081 8.52404C56.3977 8.53868 55.5211 9.80349 53.3632 10.6835Z" fill="white"/>
<path opacity="0.1" fill-rule="evenodd" clip-rule="evenodd" d="M80.1875 12C80.1875 5.37258 85.5601 0 92.1875 0C98.8149 0 104.188 5.37258 104.188 12C104.188 18.6274 98.8149 24 92.1875 24C85.5601 24 80.1875 18.6274 80.1875 12Z" fill="white"/>
<path fill-rule="evenodd" clip-rule="evenodd" d="M91.8281 9.75376L91.8533 10.169L91.4336 10.1181C89.9059 9.92324 88.5713 9.26227 87.4382 8.15217L86.8842 7.60136L86.7415 8.00811C86.4393 8.91483 86.6324 9.8724 87.2619 10.5164C87.5977 10.8723 87.5221 10.9232 86.9429 10.7113C86.7415 10.6435 86.5652 10.5927 86.5484 10.6181C86.4897 10.6774 86.6911 11.4486 86.8506 11.7536C87.0688 12.1773 87.5137 12.5926 88.0006 12.8383L88.4118 13.0332L87.925 13.0417C87.455 13.0417 87.4382 13.0502 87.4885 13.2281C87.6564 13.7789 88.3195 14.3636 89.0582 14.6179L89.5786 14.7958L89.1253 15.067C88.4538 15.4568 87.6648 15.6771 86.8758 15.6941C86.4981 15.7025 86.1875 15.7364 86.1875 15.7618C86.1875 15.8466 87.2115 16.3211 87.8075 16.5076C89.5954 17.0584 91.719 16.8211 93.3138 15.8805C94.447 15.211 95.5801 13.8806 96.1089 12.5926C96.3943 11.9062 96.6797 10.652 96.6797 10.0504C96.6797 9.66055 96.7049 9.6097 97.1749 9.14363C97.4519 8.87246 97.7121 8.57587 97.7625 8.49113C97.8464 8.33013 97.838 8.33013 97.4099 8.47419C96.6965 8.72841 96.5958 8.69451 96.9483 8.31318C97.2085 8.04201 97.5191 7.55052 97.5191 7.40646C97.5191 7.38104 97.3932 7.42341 97.2505 7.49967C97.0994 7.58441 96.7636 7.71152 96.5118 7.78779L96.0586 7.93185L95.6473 7.65221C95.4206 7.49967 95.1017 7.33019 94.9338 7.27935C94.5057 7.16071 93.851 7.17766 93.4649 7.31324C92.4157 7.69458 91.7526 8.67756 91.8281 9.75376Z" fill="white"/>
<path opacity="0.1" fill-rule="evenodd" clip-rule="evenodd" d="M120.188 12C120.188 5.37258 125.56 0 132.188 0C138.815 0 144.188 5.37258 144.188 12C144.188 18.6274 138.815 24 132.188 24C125.56 24 120.188 18.6274 120.188 12Z" fill="white"/>
<path fill-rule="evenodd" clip-rule="evenodd" d="M137.188 7.8747C137.739 8.02583 138.173 8.47114 138.32 9.03665C138.588 10.0616 138.588 12.2 138.588 12.2C138.588 12.2 138.588 14.3384 138.32 15.3634C138.173 15.9289 137.739 16.3742 137.188 16.5254C136.19 16.8 132.188 16.8 132.188 16.8C132.188 16.8 128.185 16.8 127.187 16.5254C126.636 16.3742 126.202 15.9289 126.055 15.3634C125.788 14.3384 125.788 12.2 125.788 12.2C125.788 12.2 125.788 10.0616 126.055 9.03665C126.202 8.47114 126.636 8.02583 127.187 7.8747C128.185 7.60004 132.188 7.60004 132.188 7.60004C132.188 7.60004 136.19 7.60004 137.188 7.8747ZM130.988 10.4V14.4L134.188 12.4001L130.988 10.4Z" fill="white"/>
</g>
<defs>
<clipPath id="clip0_1_20">
<rect width="159" height="24" fill="white" transform="translate(0.1875)"/>
</clipPath>
</defs>
</svg>
